<svg width="1438" height="1379" viewBox="0 0 1438 1379" fill="none" xmlns="http://www.w3.org/2000/svg">
<path d="M745.384 1258.61L1213.42 918.557C1304.68 852.256 1324.91 724.53 1258.61 633.274L918.557 165.234C852.256 73.9779 724.53 53.7482 633.274 120.05L165.234 460.101C73.9778 526.402 53.748 654.128 120.049 745.384L460.1 1213.42C526.402 1304.68 654.128 1324.91 745.384 1258.61Z" fill="url(#paint0_linear_2081_20009)"/>
<path d="M617.315 1138.01L1111.12 1112.13C1207.39 1107.09 1281.35 1024.95 1276.3 928.678L1250.42 434.876C1245.38 338.601 1163.24 264.645 1066.97 269.69L573.164 295.569C476.889 300.615 402.933 382.752 407.978 479.027L433.858 972.828C438.903 1069.1 521.04 1143.06 617.315 1138.01Z" fill="url(#paint1_linear_2081_20009)"/>
<path d="M581.674 991.953L947.674 1203.26C1019.04 1244.46 1110.28 1220.01 1151.49 1148.65L1362.8 782.652C1404 711.291 1379.55 620.042 1308.18 578.841L942.184 367.531C870.823 326.331 779.574 350.781 738.373 422.142L527.063 788.142C485.863 859.503 510.313 950.753 581.674 991.953Z" fill="url(#paint2_linear_2081_20009)"/>
<path d="M624.102 870.663L788.093 1192.51C820.066 1255.26 896.855 1280.21 959.606 1248.24L1281.46 1084.25C1344.21 1052.28 1369.16 975.487 1337.18 912.736L1173.19 590.887C1141.22 528.136 1064.43 503.185 1001.68 535.158L679.83 699.149C617.079 731.122 592.129 807.912 624.102 870.663Z" fill="url(#paint3_linear_2081_20009)"/>
<path d="M710.987 803.457L678.715 1110.51C672.423 1170.37 715.852 1224 775.715 1230.29L1082.76 1262.56C1142.63 1268.85 1196.26 1225.43 1202.55 1165.56L1234.82 858.515C1241.11 798.651 1197.68 745.021 1137.82 738.729L830.773 706.457C770.909 700.165 717.279 743.594 710.987 803.457Z" fill="url(#paint4_linear_2081_20009)"/>
<path d="M804.535 795.743L638.476 1000.81C606.097 1040.79 612.263 1099.46 652.248 1131.84L857.313 1297.89C897.298 1330.27 955.961 1324.11 988.34 1284.12L1154.4 1079.06C1186.78 1039.07 1180.61 980.41 1140.63 948.031L935.562 781.972C895.577 749.593 836.914 755.759 804.535 795.743Z" fill="url(#paint5_linear_2081_20009)"/>
<path d="M875.194 833.757L660.702 903.45C618.881 917.038 595.995 961.955 609.583 1003.78L679.276 1218.27C692.864 1260.09 737.781 1282.98 779.602 1269.39L994.094 1199.69C1035.91 1186.11 1058.8 1141.19 1045.21 1099.37L975.521 884.876C961.932 843.055 917.015 820.169 875.194 833.757Z" fill="url(#paint6_linear_2081_20009)"/>
<path d="M908.149 893.899L721.948 844.006C685.645 834.279 648.331 855.823 638.604 892.126L588.712 1078.33C578.984 1114.63 600.528 1151.94 636.83 1161.67L823.031 1211.56C859.333 1221.29 896.648 1199.75 906.375 1163.44L956.267 977.243C965.994 940.941 944.451 903.626 908.149 893.899Z" fill="url(#paint7_linear_2081_20009)"/>
<path d="M903.767 952.35L793.521 829.91C772.028 806.039 735.254 804.112 711.383 825.605L588.943 935.851C565.072 957.344 563.145 994.119 584.638 1017.99L694.884 1140.43C716.377 1164.3 753.152 1166.23 777.022 1144.73L899.462 1034.49C923.333 1013 925.26 976.221 903.767 952.35Z" fill="url(#paint8_linear_2081_20009)"/>
<path d="M873.418 992.21L851.389 853.124C847.094 826.008 821.63 807.508 794.514 811.803L655.428 833.832C628.312 838.127 609.811 863.59 614.106 890.706L636.135 1029.79C640.43 1056.91 665.893 1075.41 693.009 1071.11L832.096 1049.08C859.212 1044.79 877.712 1019.33 873.418 992.21Z" fill="url(#paint9_linear_2081_20009)"/>
<path d="M833.111 1006.66L882.062 896.712C891.607 875.274 881.966 850.158 860.528 840.613L750.574 791.659C729.136 782.114 704.02 791.755 694.475 813.193L645.524 923.139C635.979 944.577 645.621 969.692 667.059 979.237L777.013 1028.19C798.45 1037.74 823.567 1028.1 833.111 1006.66Z" fill="url(#paint10_linear_2081_20009)"/>
<path d="M797.495 998.241L883.761 942.219C900.584 931.294 905.365 908.8 894.44 891.977L838.418 805.711C827.494 788.888 805 784.107 788.177 795.032L701.911 851.054C685.088 861.979 680.307 884.472 691.232 901.295L747.254 987.561C758.178 1004.38 780.672 1009.17 797.495 998.241Z" fill="url(#paint11_linear_2081_20009)"/>
<path d="M775.882 975.636H863.803C880.946 975.636 894.843 961.739 894.843 944.596V856.676C894.843 839.533 880.946 825.636 863.803 825.636H775.882C758.739 825.636 744.843 839.533 744.843 856.676V944.596C744.843 961.739 758.739 975.636 775.882 975.636Z" fill="url(#paint12_linear_2081_20009)"/>
<g clip-path="url(#clip0_2081_20009)">
<path d="M868 853H772V949H868V853Z" fill="black"/>
<path d="M836.376 864.709H843.704L859.188 901.096H850.879L847.575 892.993H832.298L828.995 901.096H820.892L836.376 864.709ZM844.737 885.974L839.937 874.258L835.137 885.974H844.737Z" fill="white"/>
<path d="M814.58 902.181L810.606 898.619C807.561 900.581 803.897 901.716 799.871 901.716C788.723 901.716 780.723 893.407 780.723 883.136V883.032C780.723 872.762 788.826 864.349 799.974 864.349C811.122 864.349 819.122 872.658 819.122 882.929V883.032C819.122 886.852 817.935 890.413 815.922 893.407L819.638 896.555L814.58 902.181ZM804.722 893.407L798.839 888.4L803.897 882.723L809.832 888.091C810.451 886.645 810.813 884.942 810.813 883.136V883.032C810.813 876.839 806.271 871.678 799.871 871.678C793.471 871.678 789.032 876.736 789.032 882.929V883.032C789.032 889.226 793.574 894.387 799.974 894.387C801.729 894.387 803.329 894.077 804.722 893.407Z" fill="white"/>
<path d="M817 930.999H781.001V936.998H817V930.999Z" fill="white"/>
</g>
<defs>
<linearGradient id="paint0_linear_2081_20009" x1="965.654" y1="1115.19" x2="381.633" y2="305.098" gradientUnits="userSpaceOnUse">
<stop stop-color="#3BEA62" stop-opacity="0.85"/>
<stop offset="0.614583" stop-color="#087CFA"/>
<stop offset="0.932292" stop-color="#6B57FF" stop-opacity="0.7"/>
</linearGradient>
<linearGradient id="paint1_linear_2081_20009" x1="841.974" y1="1137.75" x2="800.441" y2="285.196" gradientUnits="userSpaceOnUse">
<stop stop-color="#3BEA62" stop-opacity="0.85"/>
<stop offset="0.614583" stop-color="#087CFA"/>
<stop offset="0.932292" stop-color="#6B57FF" stop-opacity="0.7"/>
</linearGradient>
<linearGradient id="paint2_linear_2081_20009" x1="742.832" y1="1096.34" x2="1109.92" y2="465.89" gradientUnits="userSpaceOnUse">
<stop stop-color="#3BEA62" stop-opacity="0.85"/>
<stop offset="0.614583" stop-color="#087CFA"/>
<stop offset="0.932292" stop-color="#6B57FF" stop-opacity="0.7"/>
</linearGradient>
<linearGradient id="paint3_linear_2081_20009" x1="691.032" y1="1020.51" x2="1247.65" y2="739.477" gradientUnits="userSpaceOnUse">
<stop stop-color="#3BEA62" stop-opacity="0.85"/>
<stop offset="0.614583" stop-color="#087CFA"/>
<stop offset="0.932292" stop-color="#6B57FF" stop-opacity="0.7"/>
</linearGradient>
<linearGradient id="paint4_linear_2081_20009" x1="689.208" y1="942.027" x2="1219.02" y2="999.686" gradientUnits="userSpaceOnUse">
<stop stop-color="#3BEA62" stop-opacity="0.85"/>
<stop offset="0.614583" stop-color="#087CFA"/>
<stop offset="0.932292" stop-color="#6B57FF" stop-opacity="0.7"/>
</linearGradient>
<linearGradient id="paint5_linear_2081_20009" x1="724.422" y1="884.93" x2="1077.36" y2="1172.89" gradientUnits="userSpaceOnUse">
<stop stop-color="#3BEA62" stop-opacity="0.85"/>
<stop offset="0.614583" stop-color="#087CFA"/>
<stop offset="0.932292" stop-color="#6B57FF" stop-opacity="0.7"/>
</linearGradient>
<linearGradient id="paint6_linear_2081_20009" x1="776.251" y1="860.395" x2="895.191" y2="1231.09" gradientUnits="userSpaceOnUse">
<stop stop-color="#3BEA62" stop-opacity="0.85"/>
<stop offset="0.614583" stop-color="#087CFA"/>
<stop offset="0.932292" stop-color="#6B57FF" stop-opacity="0.7"/>
</linearGradient>
<linearGradient id="paint7_linear_2081_20009" x1="824.821" y1="866.933" x2="737.515" y2="1188.03" gradientUnits="userSpaceOnUse">
<stop stop-color="#3BEA62" stop-opacity="0.85"/>
<stop offset="0.614583" stop-color="#087CFA"/>
<stop offset="0.932292" stop-color="#6B57FF" stop-opacity="0.7"/>
</linearGradient>
<linearGradient id="paint8_linear_2081_20009" x1="856.589" y1="894.232" x2="644.54" y2="1083.75" gradientUnits="userSpaceOnUse">
<stop stop-color="#3BEA62" stop-opacity="0.85"/>
<stop offset="0.614583" stop-color="#087CFA"/>
<stop offset="0.932292" stop-color="#6B57FF" stop-opacity="0.7"/>
</linearGradient>
<linearGradient id="paint9_linear_2081_20009" x1="866.654" y1="928.589" x2="626.432" y2="965.73" gradientUnits="userSpaceOnUse">
<stop stop-color="#3BEA62" stop-opacity="0.85"/>
<stop offset="0.614583" stop-color="#087CFA"/>
<stop offset="0.932292" stop-color="#6B57FF" stop-opacity="0.7"/>
</linearGradient>
<linearGradient id="paint10_linear_2081_20009" x1="857.878" y1="957.909" x2="668.388" y2="872.705" gradientUnits="userSpaceOnUse">
<stop stop-color="#3BEA62" stop-opacity="0.85"/>
<stop offset="0.614583" stop-color="#087CFA"/>
<stop offset="0.932292" stop-color="#6B57FF" stop-opacity="0.7"/>
</linearGradient>
<linearGradient id="paint11_linear_2081_20009" x1="837.939" y1="974.826" x2="741.776" y2="825.546" gradientUnits="userSpaceOnUse">
<stop stop-color="#3BEA62" stop-opacity="0.85"/>
<stop offset="0.614583" stop-color="#087CFA"/>
<stop offset="0.932292" stop-color="#6B57FF" stop-opacity="0.7"/>
</linearGradient>
<linearGradient id="paint12_linear_2081_20009" x1="815.775" y1="977.679" x2="816.334" y2="825.909" gradientUnits="userSpaceOnUse">
<stop stop-color="#3BEA62" stop-opacity="0.85"/>
<stop offset="0.614583" stop-color="#087CFA"/>
<stop offset="0.932292" stop-color="#6B57FF" stop-opacity="0.7"/>
</linearGradient>
<clipPath id="clip0_2081_20009">
<rect width="96" height="96" fill="white" transform="translate(772 853)"/>
</clipPath>
</defs>
</svg>
